<?xml version="1.0" standalone="no"?>
<!DOCTYPE svg PUBLIC "-//W3C//DTD SVG 20010904//EN"
 "http://www.w3.org/TR/2001/REC-SVG-20010904/DTD/svg10.dtd">
<svg version="1.0" xmlns="http://www.w3.org/2000/svg"
 width="400.000000pt" height="400.000000pt" viewBox="0 0 400.000000 400.000000"
 preserveAspectRatio="xMidYMid meet">
<metadata>
Created by potrace 1.11, written by Peter Selinger 2001-2013
</metadata>
<g transform="translate(0.000000,400.000000) scale(0.100000,-0.100000)"
fill="#000000" stroke="none">
<path d="M0 2000 l0 -2000 2000 0 2000 0 0 2000 0 2000 -2000 0 -2000 0 0
-2000z m3456 1095 c126 -17 175 -28 262 -56 48 -16 62 -25 58 -37 -2 -10 -32
-131 -66 -269 -69 -282 -63 -272 -141 -233 -158 81 -316 123 -464 124 -213 1
-303 -67 -346 -259 -18 -81 -19 -465 -1 -559 26 -138 83 -217 181 -251 56 -20
181 -30 246 -21 l47 8 -3 213 -4 214 60 6 c113 10 487 36 489 33 1 -2 -1 -183
-4 -402 l-5 -399 -85 -29 c-107 -36 -259 -73 -370 -89 -139 -20 -407 -16 -520
8 -412 88 -638 358 -681 818 -21 228 17 490 96 662 112 242 337 420 615 488
183 45 440 57 636 30z m-2520 -112 c-8 -134 -19 -729 -14 -723 26 28 389 631
429 713 l54 107 317 0 c175 0 318 -2 318 -4 0 -2 -124 -204 -276 -448 -152
-243 -281 -452 -286 -464 -8 -18 3 -40 66 -137 98 -152 279 -410 433 -620 100
-137 123 -174 123 -202 0 -23 -5 -35 -17 -39 -40 -12 -302 -57 -444 -76 l-153
-20 -35 24 c-29 19 -72 87 -222 352 -103 181 -216 382 -250 446 l-64 117 -5
-117 c-5 -109 1 -387 15 -665 l6 -117 -306 0 c-191 0 -305 4 -305 10 0 5 7
135 15 288 14 252 14 346 0 952 -8 370 -15 683 -15 696 l0 24 311 0 311 0 -6
-97z"/>
</g>
</svg>
